<svg xmlns="http://www.w3.org/2000/svg" width="52" height="52" fill="none" viewBox="0 0 52 52"><path fill="#fff" d="M25.7331 0C29.2708 0 32.5951 0.670955 35.7059 2.01286C38.8167 3.35477 41.531 5.18465 43.8488 7.5025C46.1667 9.82034 47.9966 12.5245 49.3385 15.615C50.6804 18.7054 51.3513 22.0195 51.3513 25.5573C51.3513 29.095 50.6804 32.4193 49.3385 35.5301C47.9966 38.6409 46.1667 41.3552 43.8488 43.6731C41.531 45.9909 38.8167 47.8208 35.7059 49.1627C32.5951 50.5046 29.2708 51.1756 25.7331 51.1756C22.1953 51.1756 18.8812 50.5046 15.7907 49.1627C12.7003 47.8208 9.99612 45.9909 7.67828 43.6731C5.36043 41.3552 3.53056 38.6409 2.18865 35.5301C0.846736 32.4193 0.175781 29.095 0.175781 25.5573C0.175781 22.0195 0.846736 18.7054 2.18865 15.615C3.53056 12.5245 5.36043 9.82034 7.67828 7.5025C9.99612 5.18465 12.7003 3.35477 15.7907 2.01286C18.8812 0.670955 22.1953 0 25.7331 0ZM35.3704 11.1623H29.9418C28.8845 11.1623 27.9086 11.3452 27.014 11.7112C26.1194 12.0772 25.3366 12.5652 24.6656 13.1751C23.9947 13.7851 23.4762 14.4764 23.1102 15.249C22.7443 16.0216 22.5613 16.7942 22.5613 17.5668V20.7996H17.7426V27.1432H22.5613V39.9523H28.9658V27.1432H33.7235V20.7996H28.9658V19.1527C28.9658 18.6647 29.159 18.2784 29.5453 17.9938C29.9316 17.7091 30.2671 17.5668 30.5517 17.5668H35.3704V11.1623Z"/></svg>