<svg xmlns="http://www.w3.org/2000/svg" width="52" height="52" fill="none" viewBox="0 0 52 52"><path fill="#fff" d="M25.3126 31.2434C24.5382 31.2434 23.8147 31.1007 23.1421 30.8154C22.4696 30.5301 21.8785 30.1326 21.369 29.6231C20.8595 29.1136 20.4621 28.5124 20.1767 27.8195C19.8914 27.1265 19.7488 26.3928 19.7488 25.6184C19.7488 24.8439 19.8914 24.1204 20.1767 23.4478C20.4621 22.7753 20.8595 22.1842 21.369 21.6747C21.8785 21.1652 22.4696 20.7678 23.1421 20.4825C23.8147 20.1971 24.5382 20.0545 25.3126 20.0545C26.8616 20.0545 28.1761 20.5945 29.2563 21.6747C30.3365 22.7549 30.8765 24.0694 30.8765 25.6184C30.8765 26.3928 30.7339 27.1265 30.4485 27.8195C30.1632 28.5124 29.7658 29.1136 29.2563 29.6231C28.7468 30.1326 28.1557 30.5301 27.4832 30.8154C26.8106 31.1007 26.0871 31.2434 25.3126 31.2434ZM34.2393 25.6184C34.2393 25.2515 34.2189 24.8745 34.1782 24.4872C34.1374 24.1 34.0763 23.7433 33.9948 23.4173H36.5016V35.7067C36.5016 36.0328 36.3997 36.2978 36.1959 36.5016C35.9921 36.7054 35.7271 36.8073 35.401 36.8073H15.2243C14.8982 36.8073 14.6332 36.7054 14.4294 36.5016C14.2256 36.2978 14.1237 36.0328 14.1237 35.7067V23.4173H16.6305C16.549 23.7433 16.4879 24.1 16.4471 24.4872C16.4063 24.8745 16.386 25.2515 16.386 25.6184C16.386 26.8412 16.6203 28.0029 17.0891 29.1034C17.5578 30.204 18.1896 31.1619 18.9845 31.9771C19.7793 32.7923 20.727 33.4343 21.8276 33.903C22.9281 34.3718 24.0898 34.6062 25.3126 34.6062C26.5355 34.6062 27.6972 34.3718 28.7977 33.903C29.8983 33.4343 30.846 32.7923 31.6408 31.9771C32.4356 31.1619 33.0674 30.204 33.5362 29.1034C34.005 28.0029 34.2393 26.8412 34.2393 25.6184ZM25.5572 0C29.1034 0 32.4255 0.672558 35.5233 2.01767C38.6211 3.36279 41.3318 5.18685 43.6551 7.48985C45.9785 9.79286 47.8128 12.4933 49.1579 15.5911C50.503 18.689 51.1756 22.011 51.1756 25.5572C51.1756 29.1034 50.503 32.4255 49.1579 35.5233C47.8128 38.6211 45.9785 41.3318 43.6551 43.6551C41.3318 45.9785 38.6211 47.8128 35.5233 49.1579C32.4255 50.503 29.1034 51.1756 25.5572 51.1756C22.011 51.1756 18.689 50.503 15.5911 49.1579C12.4933 47.8128 9.79286 45.9785 7.48985 43.6551C5.18685 41.3318 3.36279 38.6211 2.01767 35.5233C0.672558 32.4255 0 29.1034 0 25.5572C0 22.011 0.672558 18.689 2.01767 15.5911C3.36279 12.4933 5.18685 9.79286 7.48985 7.48985C9.79286 5.18685 12.4933 3.36279 15.5911 2.01767C18.689 0.672558 22.011 0 25.5572 0ZM39.8644 14.4294C39.8644 13.4919 39.5383 12.6971 38.8861 12.0449C38.2339 11.3927 37.4391 11.0666 36.5016 11.0666H14.1237C13.1862 11.0666 12.3914 11.3927 11.7392 12.0449C11.087 12.6971 10.7609 13.4919 10.7609 14.4294V36.8073C10.7609 37.7448 11.087 38.5396 11.7392 39.1918C12.3914 39.844 13.1862 40.1701 14.1237 40.1701H36.5016C37.4391 40.1701 38.2339 39.844 38.8861 39.1918C39.5383 38.5396 39.8644 37.7448 39.8644 36.8073V14.4294ZM35.401 14.4294C35.7271 14.4294 35.9921 14.5415 36.1959 14.7657C36.3997 14.9899 36.5016 15.265 36.5016 15.5911V18.9539C36.5016 19.28 36.3997 19.5449 36.1959 19.7488C35.9921 19.9526 35.7271 20.0545 35.401 20.0545H32.0382C31.7121 20.0545 31.437 19.9526 31.2128 19.7488C30.9886 19.5449 30.8765 19.28 30.8765 18.9539V15.5911C30.8765 15.265 30.9886 14.9899 31.2128 14.7657C31.437 14.5415 31.7121 14.4294 32.0382 14.4294H35.401Z"/></svg>