<svg xmlns="http://www.w3.org/2000/svg" xmlns:xlink="http://www.w3.org/1999/xlink" id="Layer_1" x="0" y="0" version="1.1" viewBox="0 0 500 342.16" style="enable-background:new 0 0 500 342.16" xml:space="preserve"><style type="text/css">.st0{fill:#dcd6f7}.st1{fill:#424874}</style><path d="M202.26,69.3c-67.13,48.63-130.83,106.86-169.4,181.29l-0.25-0.12c32.3-79.24,97.09-138.52,169.49-181.42	L202.26,69.3z" class="st0"/><path d="M46.81,207.48c7.69-77.36,87.87-136.44,145.47-180.65c-3.68,7.18-13.15,25.69-16.93,33.1l-5.1-4.66	C223.04,19.58,283.4-16.86,348.49,8.4C300.28,28.57,256,57.62,216.05,91.14l-3.69-5.72c21.51-10.79,46.52-12.8,69.9-7.82	C217.81,179.65,126.04,154.7,57.92,246.15c-21.05,29-36.43,62.17-57.92,90.97c4.54-23.3,11.48-46.83,23.94-67.17l0.12,0.06	c-7.46,17.11-12.21,35.22-15.12,53.61l-5.3-2.09c21.24-32.68,36.01-69.5,61.37-99.47c60.57-71.36,151.1-60.65,207.09-143.87	l2.54,6.25c-27.2-6.41-54.97,3.67-78.85,16.26c40.38-38.09,84.76-75.69,137.26-95.46l0.81,8.48	c-62.84-17.18-119.9,24.82-171.65,54.84c4.22-7.39,14.54-25.51,18.87-33.09l4.48,3.83C136.05,83.23,63.52,141.54,47.1,207.52	L46.81,207.48z" class="st1"/><path d="M36.37,341.61c14.23-1.82,29.81-3.75,43.84-6.59l-0.18,0.05c6.05-1.62,52.06-12.81,39.46-23.14	c-6.65-3.51-15.1-0.94-21.86-4.95c-27.38-18.39,7.72-38.23,26.99-40.64c36.76-5.97,74.03-1,110.63,3.43	c30.62,2.85,62.58,2.9,92.61-4.37c13.72-3.53,35.48-15.14,6.99-16.87c-64.37,3.26-42.96-39.3,6.44-38.56	c22.09-1.73,44.59,0.15,66.74-0.89c31.54-0.73,62.63-7.11,91.79-19.21l0.17,0.34c-51.02,32.16-110.42,24.11-167.47,28.91	c-6.07,0.08-39.17,10.2-24.27,17.76c13.3,4.31,28.99-0.85,42.27,4.95c8.42,2.31,10.36,13.01,5.17,19.49	c-6.23,7.75-16.32,10.47-25.31,13.35c-12.63,3.41-25.53,4.74-38.5,5.45c-50.8,4.41-101.24-11.51-152.01-7.39	c-15,1.52-34.52,3.82-43.71,16.94c-2.17,6.03,3.19,11.07,9.8,12.32c20.29,0.19,33.02,14.7,11.2,26.34l0.27-0.16	c-11.57,5.3-23.94,8.3-36.3,10.55c-14.81,2.18-29.8,2.9-44.74,3.46L36.37,341.61z" class="st1"/></svg>