<svg xmlns="http://www.w3.org/2000/svg" width="52" height="52" fill="none" viewBox="0 0 52 52"><path fill="#fff" d="M25.9088 0C29.455 0 32.777 0.672558 35.8749 2.01767C38.9727 3.36279 41.6833 5.18685 44.0067 7.48985C46.3301 9.79286 48.1643 12.4933 49.5095 15.5911C50.8546 18.689 51.5271 22.011 51.5271 25.5572C51.5271 29.1034 50.8546 32.4255 49.5095 35.5233C48.1643 38.6211 46.3301 41.3318 44.0067 43.6551C41.6833 45.9785 38.9727 47.8128 35.8749 49.1579C32.777 50.503 29.455 51.1756 25.9088 51.1756C22.3626 51.1756 19.0405 50.503 15.9427 49.1579C12.8448 47.8128 10.1444 45.9785 7.84142 43.6551C5.53841 41.3318 3.71435 38.6211 2.36924 35.5233C1.02412 32.4255 0.351562 29.1034 0.351562 25.5572C0.351562 22.011 1.02412 18.689 2.36924 15.5911C3.71435 12.4933 5.53841 9.79286 7.84142 7.48985C10.1444 5.18685 12.8448 3.36279 15.9427 2.01767C19.0405 0.672558 22.3626 0 25.9088 0ZM38.6262 20.0545C39.8083 19.1577 40.8477 18.0775 41.7445 16.814C41.1738 17.0585 40.593 17.2623 40.0019 17.4254C39.4109 17.5884 38.7893 17.7107 38.1371 17.7922C38.7893 17.3846 39.3599 16.8853 39.8491 16.2943C40.3382 15.7032 40.6847 15.0612 40.8885 14.3683C40.2771 14.6944 39.6453 14.9899 38.9931 15.2548C38.3409 15.5198 37.6684 15.7134 36.9754 15.8357C36.4048 15.265 35.7322 14.7963 34.9577 14.4294C34.1833 14.0626 33.3273 13.8792 32.3898 13.8792C31.5338 13.8792 30.7288 14.0422 29.9747 14.3683C29.2206 14.6944 28.5684 15.1427 28.0182 15.7134C27.4679 16.2841 27.0297 16.9464 26.7036 17.7005C26.3775 18.4546 26.2145 19.2596 26.2145 20.1156C26.2145 20.3602 26.2247 20.6047 26.2451 20.8493C26.2654 21.0939 26.296 21.3181 26.3368 21.5219C23.7688 21.3996 21.3843 20.7678 19.1832 19.6265C16.9821 18.4852 15.1071 16.9566 13.5582 15.0408C12.9875 15.9784 12.7022 17.0178 12.7022 18.1591C12.7022 19.2189 12.9569 20.2073 13.4664 21.1244C13.976 22.0416 14.6383 22.7855 15.4536 23.3561C14.3938 23.2746 13.4563 23.0096 12.641 22.5613V22.6224C12.641 24.1713 13.12 25.5063 14.0779 26.6272C15.0358 27.7481 16.228 28.4513 17.6547 28.7366C17.3693 28.8181 17.0942 28.8792 16.8292 28.92C16.5643 28.9608 16.2892 28.9811 16.0038 28.9811C15.8 28.9811 15.6064 28.971 15.423 28.9506C15.2396 28.9302 15.0459 28.8996 14.8421 28.8589C15.2497 30.0817 15.9733 31.1007 17.0127 31.9159C18.0521 32.7312 19.2647 33.1388 20.6506 33.1388C19.5908 33.9948 18.3985 34.6571 17.0738 35.1259C15.7491 35.5946 14.3734 35.829 12.9467 35.829C12.6614 35.829 12.3965 35.8188 12.1519 35.7984C11.9073 35.7781 11.6628 35.7475 11.4182 35.7067C12.8041 36.6035 14.302 37.2964 15.9121 37.7855C17.5222 38.2747 19.2036 38.5192 20.9563 38.5192C23.8096 38.5192 26.3368 37.9792 28.5379 36.899C30.739 35.8188 32.5834 34.4329 34.0712 32.7414C35.559 31.0498 36.6901 29.1544 37.4645 27.0552C38.239 24.956 38.6262 22.8874 38.6262 20.8493V20.0545Z"/></svg>